# xmcd
#
# Track frame offsets:
#	150
#	18612
#	40540
#	60454
#	76032
#	93562
#
# Disc length: 1507 seconds
#
# Revision: 0
# Processed by: cddbd v1.5.1PL0 Copyright (c) Steve Scherf et al.
# Submitted via: dBpowerAMP V4.0
#
DISCID=3a05e106
DTITLE=Niki King - Letting Go
DYEAR=2004
DGENRE=Blues
TTITLE0=Letting Go
TTITLE1=Skin Deep
TTITLE2=The Soul In Me
TTITLE3=Wrong Direction
TTITLE4=Priceless Love
TTITLE5=I'll Rise
EXTD=
EXTT0=
EXTT1=
EXTT2=
EXTT3=
EXTT4=
EXTT5=
PLAYORDER=
